#!OML:ASF X:\für Bonn\!DataBase\2005_08_12_Daniel\c3d\Daniel.ASF
:FULLY-SPECIFIED
:DEGREES
949
root 17.4988 17.209 33.3297 -183.078 48.9167 -175.904
lowerback 11.7299 -2.55798 2.36759
upperback 3.62868 -2.89829 0.0058317
thorax -2.89338 -1.34709 -0.922574
lowerneck -0.112437 3.94766 -2.24109
upperneck 12.9807 7.02467 -7.77619
head 4.58603 3.2785 -1.94434
rclavicle -5.14355e-014 1.64991e-014
rhumerus -44.2635 -14.3688 -78.3721
rradius 17.5585
rwrist 23.0322
rhand -18.5308 15.8552
rfingers 7.12502
rthumb 7.75803 -13.9824
lclavicle -5.14355e-014 1.64991e-014
lhumerus -24.4123 -7.09279 96.5598
lradius 50.4492
lwrist 2.09457
lhand -15.2386 -9.01871
lfingers 7.12502
lthumb 10.9346 20.6766
rfemur -8.02512 22.5476 15.978
rtibia 28.6703
rfoot -17.497 16.9223
rtoes -23.1648
lfemur -14.6448 -25.7388 -20.8436
ltibia 46.5013
lfoot -21.627 -28.518
ltoes -3.88783
950
root 17.561 17.2132 33.4023 -183.107 47.3348 -176.02
lowerback 11.7923 -2.56329 2.4478
upperback 3.63301 -2.88835 0.0175727
thorax -2.92591 -1.34004 -0.954495
lowerneck -0.157353 3.97308 -2.00573
upperneck 12.9587 7.06095 -7.8223
head 4.60043 3.3069 -1.99927
rclavicle -7.71285e-014 1.45113e-014
rhumerus -44.3345 -15.9574 -77.1354
rradius 16.8669
rwrist 25.2949
rhand -18.0881 15.8597
rfingers 7.12502
rthumb 8.18533 -13.9618
lclavicle -7.71285e-014 1.45113e-014
lhumerus -24.2428 -6.97706 96.5507
lradius 49.285
lwrist 1.85278
lhand -15.1643 -9.0976
lfingers 7.12502
lthumb 11.0063 20.5939
rfemur -7.71081 21.6336 16.1908
rtibia 28.5764
rfoot -17.5741 16.453
rtoes -22.5944
lfemur -14.9787 -25.2225 -20.6661
ltibia 46.59
lfoot -22.0899 -27.9576
ltoes -5.05176
951
root 17.6204 17.2171 33.4774 -183.107 45.8173 -176.094
lowerback 11.8725 -2.556 2.52962
upperback 3.66062 -2.85834 0.0468439
thorax -2.94235 -1.3218 -0.971969
lowerneck -0.296 4.01968 -1.76103
upperneck 13.3227 7.18151 -8.06402
head 4.27877 3.33252 -1.88014
rclavicle 9.58639e-014 -1.0138e-014
rhumerus -44.4329 -17.6956 -75.7384
rradius 16.1675
rwrist 27.8445
rhand -17.7344 15.898
rfingers 7.12502
rthumb 8.52668 -13.9098
lclavicle 9.58639e-014 -1.0138e-014
lhumerus -24.0122 -6.65108 96.5078
lradius 48.0155
lwrist 1.45337
lhand -15.0059 -9.30092
lfingers 7.12502
lthumb 11.1591 20.3824
rfemur -7.46415 20.6761 16.4255
rtibia 28.5234
rfoot -17.5597 16.0293
rtoes -21.7719
lfemur -15.2758 -24.6831 -20.5061
ltibia 46.6614
lfoot -22.5093 -27.0665
ltoes -6.2941
952
root 17.6779 17.2205 33.5546 -183.118 44.3145 -176.185
lowerback 12.0023 -2.54002 2.58199
upperback 3.66292 -2.81867 0.0841608
thorax -3.00993 -1.29975 -0.963556
lowerneck -0.366834 4.06145 -1.54685
upperneck 13.331 7.2493 -8.13116
head 4.30412 3.3729 -1.93005
rclavicle -9.405e-014 1.39149e-015
rhumerus -44.5439 -19.4394 -74.2531
rradius 15.3499
rwrist 30.406
rhand -17.5068 15.9451
rfingers 7.12502
rthumb 8.74634 -13.8537
lclavicle -9.405e-014 1.39149e-015
lhumerus -23.8132 -6.1446 96.451
lradius 46.641
lwrist 0.939204
lhand -14.8123 -9.61336
lfingers 7.12502
lthumb 11.3458 20.0597
rfemur -7.24934 19.6016 16.6604
rtibia 28.5105
rfoot -17.6582 15.5347
rtoes -21.3986
lfemur -15.5512 -24.1295 -20.3921
ltibia 46.7281
lfoot -23.0035 -25.8512
ltoes -7.68987
953
root 17.7347 17.2248 33.6325 -183.103 42.8512 -176.228
lowerback 12.1574 -2.51849 2.6564
upperback 3.66437 -2.76719 0.125662
thorax -3.0926 -1.27178 -0.964071
lowerneck -0.397203 4.12406 -1.33529
upperneck 13.2798 7.32959 -8.16464
head 4.30383 3.42274 -1.97045
rclavicle 5.93621e-014 -7.7526e-015
rhumerus -44.7019 -21.3538 -72.6182
rradius 14.4604
rwrist 33.1629
rhand -17.3895 15.9563
rfingers 7.12502
rthumb 8.8595 -13.8378
lclavicle 5.93621e-014 -7.7526e-015
lhumerus -23.5995 -5.4775 96.3382
lradius 45.1542
lwrist 0.180931
lhand -14.7534 -9.89548
lfingers 7.12502
lthumb 11.4026 19.7745
rfemur -7.04761 18.5713 16.9508
rtibia 28.5289
rfoot -17.8609 14.9501
rtoes -21.3798
lfemur -15.7934 -23.5784 -20.2783
ltibia 46.7868
lfoot -23.4214 -24.3374
ltoes -9.2043
954
root 17.7907 17.2281 33.7113 -183.087 41.4102 -176.284
lowerback 12.3289 -2.49592 2.71282
upperback 3.64943 -2.7156 0.179632
thorax -3.19975 -1.24445 -0.940782
lowerneck -0.472576 4.19509 -1.20585
upperneck 13.2992 7.43644 -8.183
head 4.33106 3.48047 -1.98971
rclavicle 6.07536e-014 -1.47101e-014
rhumerus -44.9244 -23.3529 -70.8149
rradius 13.5286
rwrist 36.0376
rhand -17.4021 15.9469
rfingers 7.12502
rthumb 8.84734 -13.8476
lclavicle 6.07536e-014 -1.47101e-014
lhumerus -23.4043 -4.56425 96.1936
lradius 43.57
lwrist -0.790538
lhand -14.7741 -10.2562
lfingers 7.12502
lthumb 11.3826 19.4148
rfemur -6.90326 17.6761 17.2207
rtibia 28.5707
rfoot -18.0289 14.3038
rtoes -21.2417
lfemur -16.028 -22.944 -20.1893
ltibia 46.8369
lfoot -23.8355 -22.6951
ltoes -10.7568
955
root 17.8464 17.2317 33.7896 -183.07 39.9666 -176.332
lowerback 12.493 -2.46366 2.78916
upperback 3.64513 -2.64899 0.21232
thorax -3.29312 -1.20925 -0.953875
lowerneck -0.541831 4.25601 -1.03832
upperneck 13.3092 7.51619 -8.15349
head 4.35281 3.52797 -2.002
rclavicle -4.86774e-014 1.17283e-014
rhumerus -45.2354 -25.3333 -69.0377
rradius 12.6647
rwrist 38.7829
rhand -17.4735 15.9102
rfingers 7.12502
rthumb 8.77841 -13.8873
lclavicle -4.86774e-014 1.17283e-014
lhumerus -23.1775 -3.57961 95.9691
lradius 41.8756
lwrist -1.95825
lhand -14.898 -10.445
lfingers 7.12502
lthumb 11.2631 19.2326
rfemur -6.76249 16.9144 17.5036
rtibia 28.6132
rfoot -18.157 13.5361
rtoes -20.8675
lfemur -16.2436 -22.2852 -20.1094
ltibia 46.8739
lfoot -24.1391 -21.0653
ltoes -12.16
